<?xml version="1.0" encoding="UTF-8"?>
<svg width="660px" height="660px" viewBox="0 0 660 660" version="1.1" xmlns="http://www.w3.org/2000/svg" xmlns:xlink="http://www.w3.org/1999/xlink">
    <title>office</title>
    <g id="Page-1" stroke="none" stroke-width="1" fill="none" fill-rule="evenodd">
        <g id="office">
            <rect id="Rectangle" fill="#E0E3E8" x="0" y="0" width="660" height="660"></rect>
            <g id="elementary-school" transform="translate(73.000000, 96.000000)" fill-rule="nonzero">
                <path d="M225.216,296.656 L246.024,296.656 C249.696,296.656 252.144,294.208 252.144,290.536 L252.144,261.16 C252.144,257.488 249.696,255.04 246.024,255.04 L225.216,255.04 C221.544,255.04 219.096,257.488 219.096,261.16 L219.096,290.536 C219.096,292.984 221.544,296.656 225.216,296.656 Z" id="Path" fill-opacity="0.5" fill="#455A64"></path>
                <path d="M268.056,296.656 L288.865,296.656 C292.537,296.656 294.985,294.208 294.985,290.536 L294.985,261.16 C294.985,257.488 292.537,255.04 288.865,255.04 L268.056,255.04 C264.384,255.04 261.937,257.488 261.937,261.16 L261.937,290.536 C261.937,292.984 264.384,296.656 268.056,296.656 Z" id="Path" fill-opacity="0.5" fill="#455A64"></path>
                <path d="M225.216,241.576 L246.024,241.576 C249.696,241.576 252.144,239.128 252.144,235.456 L252.144,206.08 C252.144,202.408 249.696,199.96 246.024,199.96 L225.216,199.96 C221.544,199.96 219.096,202.408 219.096,206.08 L219.096,235.456 C219.096,239.128 221.544,241.576 225.216,241.576 Z" id="Path" fill-opacity="0.5" fill="#455A64"></path>
                <path d="M268.056,241.576 L288.865,241.576 C292.537,241.576 294.985,239.128 294.985,235.456 L294.985,206.08 C294.985,202.408 292.537,199.96 288.865,199.96 L268.056,199.96 C264.384,199.96 261.937,202.408 261.937,206.08 L261.937,235.456 C261.937,239.128 264.384,241.576 268.056,241.576 Z" id="Path" fill-opacity="0.5" fill="#455A64"></path>
                <path d="M80.784,360.304 L59.976,360.304 C56.304,360.304 53.856,362.752 53.856,366.424 L53.856,395.8 C53.856,399.472 56.304,401.92 59.976,401.92 L80.784,401.92 C84.456,401.92 86.904,399.472 86.904,395.8 L86.904,366.424 C86.904,362.752 84.456,360.304 80.784,360.304 Z" id="Path" fill-opacity="0.5" fill="#455A64"></path>
                <path d="M80.784,416.608 L59.976,416.608 C56.304,416.608 53.856,419.055 53.856,422.727 L53.856,450.879 C53.856,454.551 56.304,456.999 59.976,456.999 L80.784,456.999 C84.456,456.999 86.904,454.551 86.904,450.879 L86.904,421.503 C86.904,419.056 84.456,416.608 80.784,416.608 Z" id="Path" fill-opacity="0.5" fill="#455A64"></path>
                <path d="M124.848,360.304 L104.04,360.304 C100.368,360.304 97.92,362.752 97.92,366.424 L97.92,395.8 C97.92,399.472 100.368,401.92 104.04,401.92 L124.848,401.92 C128.52,401.92 130.968,399.472 130.968,395.8 L130.968,366.424 C130.968,362.752 128.52,360.304 124.848,360.304 Z" id="Path" fill-opacity="0.5" fill="#455A64"></path>
                <path d="M124.848,416.608 L104.04,416.608 C100.368,416.608 97.92,419.055 97.92,422.727 L97.92,450.879 C97.92,454.551 100.368,456.999 104.04,456.999 L124.848,456.999 C128.52,456.999 130.968,454.551 130.968,450.879 L130.968,421.503 C130.968,419.056 128.52,416.608 124.848,416.608 Z" id="Path" fill-opacity="0.5" fill="#455A64"></path>
                <path d="M80.784,306.448 L59.976,306.448 C56.304,306.448 53.856,308.896 53.856,312.568 L53.856,340.719 C53.856,344.391 56.304,346.839 59.976,346.839 L80.784,346.839 C84.456,346.839 86.904,344.391 86.904,340.719 L86.904,311.343 C86.904,308.896 84.456,306.448 80.784,306.448 Z" id="Path" fill-opacity="0.5" fill="#455A64"></path>
                <path d="M124.848,306.448 L104.04,306.448 C100.368,306.448 97.92,308.896 97.92,312.568 L97.92,340.719 C97.92,344.391 100.368,346.839 104.04,346.839 L124.848,346.839 C128.52,346.839 130.968,344.391 130.968,340.719 L130.968,311.343 C130.968,308.896 128.52,306.448 124.848,306.448 Z" id="Path" fill-opacity="0.5" fill="#455A64"></path>
                <path d="M389.232,400.696 L410.04,400.696 C413.712,400.696 416.16,398.248 416.16,394.576 L416.16,365.2 C416.16,361.528 413.712,359.08 410.04,359.08 L389.232,359.08 C385.559,359.08 383.112,361.528 383.112,365.2 L383.112,394.576 C383.112,398.248 385.56,400.696 389.232,400.696 Z" id="Path" fill-opacity="0.5" fill="#455A64"></path>
                <path d="M389.232,457 L410.04,457 C413.712,457 416.16,454.552 416.16,450.88 L416.16,421.504 C416.16,417.832 413.712,415.384 410.04,415.384 L389.232,415.384 C385.559,415.384 383.112,417.832 383.112,421.504 L383.112,450.88 C383.112,454.552 385.56,457 389.232,457 Z" id="Path" fill-opacity="0.5" fill="#455A64"></path>
                <path d="M433.296,400.696 L454.105,400.696 C457.777,400.696 460.224,398.248 460.224,394.576 L460.224,365.2 C460.224,361.528 457.777,359.08 454.105,359.08 L433.296,359.08 C429.624,359.08 427.176,361.528 427.176,365.2 L427.176,394.576 C427.176,398.248 429.624,400.696 433.296,400.696 Z" id="Path" fill-opacity="0.5" fill="#455A64"></path>
                <path d="M433.296,457 L454.105,457 C457.777,457 460.224,454.552 460.224,450.88 L460.224,421.504 C460.224,417.832 457.777,415.384 454.105,415.384 L433.296,415.384 C429.624,415.384 427.176,417.832 427.176,421.504 L427.176,450.88 C427.176,454.552 429.624,457 433.296,457 Z" id="Path" fill-opacity="0.5" fill="#455A64"></path>
                <path d="M389.232,346.84 L410.04,346.84 C413.712,346.84 416.16,344.392 416.16,340.72 L416.16,311.344 C416.16,307.672 413.712,305.224 410.04,305.224 L389.232,305.224 C385.559,305.224 383.112,307.672 383.112,311.344 L383.112,340.72 C383.112,344.392 385.56,346.84 389.232,346.84 Z" id="Path" fill-opacity="0.5" fill="#455A64"></path>
                <path d="M433.296,346.84 L454.105,346.84 C457.777,346.84 460.224,344.392 460.224,340.72 L460.224,311.344 C460.224,307.672 457.777,305.224 454.105,305.224 L433.296,305.224 C429.624,305.224 427.176,307.672 427.176,311.344 L427.176,340.72 C427.176,344.392 429.624,346.84 433.296,346.84 Z" id="Path" fill-opacity="0.5" fill="#455A64"></path>
                <path d="M509.184,215.872 C505.512,212.2 500.617,210.976 495.72,210.976 L367.2,210.976 L367.2,179.152 C367.2,173.032 363.528,166.912 358.632,164.464 L275.4,108.16 L275.4,91.024 L335.376,91.024 C345.168,91.024 353.736,82.456 353.736,72.664 L353.736,31.048 C353.736,21.256 345.168,12.688 335.376,12.688 L274.176,12.688 C271.728,5.344 264.384,0.448 257.04,0.448 C247.248,0.448 238.68,9.016 238.68,18.808 L238.68,31.048 L238.68,71.44 L238.68,108.16 L155.448,163.24 C150.552,166.912 146.88,171.808 146.88,177.928 L146.88,209.752 L18.36,209.752 C8.568,210.976 0,218.32 0,229.336 L0,268.504 L0,268.504 L0,491.273 C0,501.065 8.568,509.632 18.36,509.632 L495.72,509.632 C505.512,509.632 514.08,501.065 514.08,491.273 L514.08,268.504 L514.08,268.504 L514.08,229.336 C514.08,224.44 511.632,219.544 509.184,215.872 Z M183.6,188.944 L257.04,139.984 L330.48,188.944 L330.48,229.336 L330.48,268.504 L330.48,268.504 L330.48,268.504 L330.48,472.912 L307.223,472.912 L307.223,387.232 C307.223,359.08 283.967,337.047 257.039,337.047 C230.111,337.047 206.855,360.303 206.855,387.232 L206.855,472.912 L183.6,472.912 L183.6,268.504 L183.6,188.944 Z M36.72,286.864 L146.88,286.864 L146.88,472.912 L36.72,472.912 L36.72,286.864 Z M477.36,472.912 L367.2,472.912 L367.2,286.864 L477.36,286.864 L477.36,472.912 Z" id="Shape" fill="#929EA6"></path>
            </g>
        </g>
    </g>
</svg>