<svg width="600" height="600" viewBox="0 0 600 600" xmlns="http://www.w3.org/2000/svg"><g fill="none" fill-rule="evenodd"><path fill="#E0E3E8" d="M0 0h600v600H0z"/><path d="M549.69 587.063l-12.5-50a72.603 72.603 0 00-47.607-51.646l-91.67-30.542c-22.354-9.313-32.583-45.313-34.792-58.98a86.623 86.623 0 0030.626-56.312 16.983 16.983 0 012.52-10.73 10.415 10.415 0 007.146-6.25 155.707 155.707 0 0011.167-45.52c.003-.85-.101-1.697-.312-2.52a26.791 26.791 0 00-10.105-15.167v-55.23c0-33.562-10.25-47.333-21.042-55.312C381.06 132.687 363.747 100 299.995 100c-56.56 2.277-101.892 47.607-104.17 104.167v55.23a26.791 26.791 0 00-10.104 15.166c-.211.824-.316 1.671-.313 2.521a155.714 155.714 0 0011.167 45.542 8.855 8.855 0 006.25 5.98c1.168.582 3.355 3.604 3.355 10.979a86.604 86.604 0 0030.793 56.417c-2.188 13.645-12.355 49.625-34.084 58.708l-92.482 30.708a72.604 72.604 0 00-47.584 51.604l-12.5 50c-1.416 5.577 1.958 11.245 7.534 12.66.833.212 1.69.319 2.549.32h479.18C545.339 600 550 595.335 550 589.582a10.47 10.47 0 00-.31-2.52z" fill-opacity=".497" fill="#455A64" fill-rule="nonzero"/></g></svg>