<svg xmlns="http://www.w3.org/2000/svg" viewBox="0 0 24 24"><path d="M17.5 24c-3.584 0-6.5-2.916-6.5-6.5s2.916-6.5 6.5-6.5 6.5 2.916 6.5 6.5-2.916 6.5-6.5 6.5zm0-11.5c-2.757 0-5 2.243-5 5s2.243 5 5 5 5-2.243 5-5-2.243-5-5-5z"/><path d="M16.5 20a.749.749 0 01-.53-.22l-2-2a.75.75 0 111.061-1.061l1.434 1.433 2.972-3.396a.75.75 0 111.129.989l-3.5 4a.76.76 0 01-.541.255H16.5zm-8.25 0h-6C1.01 20 0 18.99 0 17.75v-8.5C0 8.01 1.01 7 2.25 7h11.5c.645 0 1.255.275 1.675.757a.75.75 0 01-1.129.987.723.723 0 00-.546-.244H2.25a.752.752 0 00-.75.75v8.5c0 .413.337.75.75.75h6a.75.75 0 010 1.5z"/><path d="M12.25 8.5a.75.75 0 01-.75-.75V5c0-1.93-1.57-3.5-3.5-3.5S4.5 3.07 4.5 5v2.75a.75.75 0 01-1.5 0V5c0-2.757 2.243-5 5-5s5 2.243 5 5v2.75a.75.75 0 01-.75.75z"/></svg>