<svg xmlns="http://www.w3.org/2000/svg" viewBox="0 0 24 24"><path d="M18.5 11h-13C2.467 11 0 8.532 0 5.5S2.467 0 5.5 0h13C21.533 0 24 2.468 24 5.5S21.533 11 18.5 11zM5.5 1C3.019 1 1 3.019 1 5.5S3.019 10 5.5 10h13c2.481 0 4.5-2.019 4.5-4.5S20.981 1 18.5 1zm13 23h-13C2.467 24 0 21.532 0 18.5S2.467 13 5.5 13h13c3.033 0 5.5 2.468 5.5 5.5S21.533 24 18.5 24zm-13-10C3.019 14 1 16.019 1 18.5S3.019 23 5.5 23h13c2.481 0 4.5-2.019 4.5-4.5S20.981 14 18.5 14z"/><path d="M5.5 8C4.122 8 3 6.879 3 5.5S4.122 3 5.5 3 8 4.121 8 5.5 6.878 8 5.5 8zm0-4C4.673 4 4 4.673 4 5.5S4.673 7 5.5 7 7 6.327 7 5.5 6.327 4 5.5 4zm13 17c-1.378 0-2.5-1.121-2.5-2.5s1.122-2.5 2.5-2.5 2.5 1.121 2.5 2.5-1.122 2.5-2.5 2.5zm0-4c-.827 0-1.5.673-1.5 1.5s.673 1.5 1.5 1.5 1.5-.673 1.5-1.5-.673-1.5-1.5-1.5z"/></svg>