<svg xmlns="http://www.w3.org/2000/svg" viewBox="-55 0 512 512"><path d="M244.39 433c0 43.629 35.372 79 79 79s79-35.371 79-79-35.37-79-79-79-79 35.371-79 79zm117.5-15v30h-23.5v23.5h-30V448h-23.5v-30h23.5v-23.5h30V418zm0 0"/><path d="M246.316 355.926C266.902 335.34 294.273 324 323.391 324c6.48 0 12.879.566 19.132 1.668-10.535-61.2-53.418-111.473-110.355-132.52 27.848-19.082 46.152-51.109 46.152-87.34C278.32 47.466 230.855 0 172.512 0S66.703 47.465 66.703 105.809c0 36.226 18.309 68.257 46.152 87.34C47.043 217.48 0 280.854 0 355.018v69.594h214.707c1.965-25.957 13.012-50.09 31.61-68.687zm0 0"/></svg>