<svg xmlns="http://www.w3.org/2000/svg" viewBox="-62 0 512 512"><path d="M388 194.191C388 87.113 300.973 0 194 0S0 87.113 0 194.191c0 93.09 65.773 171.086 153.242 189.88v86.765c0 22.7 18.406 41.164 41.031 41.164s41.036-18.465 41.036-41.164v-86.883C322.504 364.953 388 287.086 388 194.191zM205.309 470.836c0 6.156-4.95 11.164-11.036 11.164-6.082 0-11.03-5.008-11.03-11.164V388.09a197.258 197.258 0 0022.066-.031zM194 358.386c-90.43 0-164-73.656-164-164.195C30 103.656 103.57 30 194 30s164 73.656 164 164.191-73.57 164.196-164 164.196zm0 0"/><path d="M194 67.426c-20.64 0-37.43 16.793-37.43 37.43v84.41c0 20.64 16.79 37.43 37.43 37.43s37.43-16.79 37.43-37.43v-84.41c0-20.637-16.79-37.43-37.43-37.43zm7.43 121.84c0 4.097-3.332 7.43-7.43 7.43s-7.43-3.333-7.43-7.43v-84.41c0-4.098 3.332-7.43 7.43-7.43s7.43 3.332 7.43 7.43zM194 246.05c-20.64 0-37.43 16.802-37.43 37.454S173.36 320.96 194 320.96s37.43-16.805 37.43-37.457S214.64 246.05 194 246.05zm0 44.91c-4.098 0-7.43-3.347-7.43-7.456s3.332-7.453 7.43-7.453 7.43 3.344 7.43 7.453-3.332 7.457-7.43 7.457zm0 0"/></svg>