<svg xmlns="http://www.w3.org/2000/svg" viewBox="0 0 512 512"><path d="M124.868 114.128c0-22.479-18.288-40.767-40.767-40.767s-40.767 18.288-40.767 40.767 18.288 40.767 40.767 40.767 40.767-18.288 40.767-40.767zm-40.767 25.766c-14.208 0-25.767-11.559-25.767-25.767S69.893 88.36 84.101 88.36s25.767 11.559 25.767 25.767-11.559 25.767-25.767 25.767zm13.618 68.09H70.483a7.5 7.5 0 000 15h27.236a7.5 7.5 0 000-15zm0 38.602H70.483a7.5 7.5 0 000 15h27.236a7.5 7.5 0 000-15zm0 186.577H70.483a7.5 7.5 0 000 15h27.236a7.5 7.5 0 000-15zM237.303 73.361c-22.479 0-40.767 18.288-40.767 40.767s18.288 40.767 40.767 40.767 40.767-18.288 40.767-40.767-18.289-40.767-40.767-40.767zm0 66.533c-14.208 0-25.767-11.559-25.767-25.767s11.559-25.767 25.767-25.767 25.767 11.559 25.767 25.767-11.56 25.767-25.767 25.767zm13.618 68.09h-27.236a7.5 7.5 0 000 15h27.236a7.5 7.5 0 000-15zm0 38.602h-27.236a7.5 7.5 0 000 15h27.236a7.5 7.5 0 000-15zm0 186.577h-27.236a7.5 7.5 0 000 15h27.236a7.5 7.5 0 000-15zm149.054-282.627c22.443-1.964 39.023-21.715 37.059-44.165-1.968-22.486-21.763-39.024-44.164-37.059-22.442 1.964-39.023 21.715-37.059 44.165 1.972 22.538 21.825 39.013 44.164 37.059zm-29.221-38.367c-1.242-14.185 9.233-26.673 23.422-27.914 14.152-1.244 26.671 9.206 27.914 23.422 1.242 14.185-9.233 26.673-23.422 27.914-14.037 1.238-26.661-9.098-27.914-23.422zm21.589 107.384l27.132-2.374c4.127-.361 7.179-3.999 6.818-8.125s-4.004-7.172-8.125-6.818l-27.132 2.374a7.5 7.5 0 101.307 14.943zm2.702 38.484c.524 0 27.232-2.354 27.795-2.403 4.127-.361 7.179-3.999 6.818-8.125s-4.002-7.169-8.125-6.818l-27.133 2.374a7.5 7.5 0 00.645 14.972zm16.262 185.866c.219 0 .44-.01.662-.029l27.132-2.374c4.127-.361 7.179-3.999 6.818-8.125s-4.001-7.169-8.125-6.818l-27.132 2.374a7.5 7.5 0 00.645 14.972z"/><path d="M511.924 465.083l-4.382-50.088a7.5 7.5 0 00-14.943 1.308l4.382 50.086c.014.151.02.301.02.45 0 2.553-1.998 4.728-4.549 4.951l-127.293 11.137-.131.01-.321.029c-2.733.241-5.165-1.829-5.401-4.53L321.424 45.455a5.339 5.339 0 01-.02-.454c0-2.552 1.998-4.725 4.484-4.943 33.832-2.65 14.981-1.053 129.383-11.071a4.994 4.994 0 013.827 4.419l30.449 348.03a7.5 7.5 0 0014.943-1.308L474.042 32.099c-.825-9.447-8.26-17.066-17.677-18.118a7.518 7.518 0 00-1.485-.018c-115.591 10.123-96.588 8.511-130.233 11.146a20.013 20.013 0 00-9.802 3.574c-3.552-3.233-8.254-5.224-13.424-5.224H173.185c-4.722 0-9.06 1.655-12.483 4.404a19.874 19.874 0 00-12.483-4.404H19.983C8.964 23.459 0 32.424 0 43.442v67.491a7.5 7.5 0 0015 0V43.442a4.988 4.988 0 014.983-4.983h128.236a4.988 4.988 0 014.983 4.983v434.639a4.988 4.988 0 01-4.983 4.983H19.983A4.988 4.988 0 0115 478.081V145.934a7.5 7.5 0 00-15 0v332.148c0 11.019 8.964 19.983 19.983 19.983h128.236c4.722 0 9.059-1.655 12.483-4.404a19.874 19.874 0 0012.483 4.404h128.236c11.019 0 19.982-8.964 19.982-19.983V217.329l22.958 262.414c.91 10.4 9.462 18.242 19.894 18.242 1.879 0-1.694.225 129.504-11.253 10.399-.91 18.241-9.463 18.241-19.894 0-.583-.025-1.172-.076-1.755zm-205.521 12.998a4.988 4.988 0 01-4.982 4.983H173.185a4.988 4.988 0 01-4.983-4.983V43.442a4.988 4.988 0 014.983-4.983h128.236a4.988 4.988 0 014.982 4.983z"/></svg>