<svg xmlns="http://www.w3.org/2000/svg" viewBox="0 0 480 480"><path d="M440.666 94.264L429.362 82.96a39.814 39.814 0 00-33.712-11.304V8a8 8 0 00-8-8h-352a8 8 0 00-8 8v464a8 8 0 008 8h256a8.038 8.038 0 005.656-2.344l96-96a7.87 7.87 0 001.6-2.344c.112-.248.176-.496.264-.752a7.557 7.557 0 00.408-2.056c0-.176.104-.328.104-.504V195.864l45.016-45.008c15.549-15.665 15.534-40.944-.032-56.592zM299.65 452.688V384h68.688l-68.688 68.688zm80-84.688h-88a8 8 0 00-8 8v88h-240V16h336v61.488c-.208.128-.368.32-.576.456a39.209 39.209 0 00-6.28 5.04L112.554 343.2c-.08.08-.104.184-.176.264a7.825 7.825 0 00-1.376 2.056c-.064.136-.152.256-.208.4l-.064.128-30.624 82.528a8 8 0 009.776 10.448l87.2-25.928c.144-.048.272-.136.416-.192.144-.056.4-.176.608-.264a7.958 7.958 0 002.208-1.472s.08-.04.112-.072l.088-.088.088-.088L379.65 211.864V368zm-221.824 9.136L361.45 173.512l16.968 16.968-203.624 203.624-16.968-16.968zm1.824 24.464l-58.944 17.536 20.672-55.776 38.272 38.24zm-13.136-35.776l-16.968-16.968 203.648-203.624 16.968 16.968-203.648 203.624zM389.73 179.2l-45.28-45.28 11.328-11.328 45.248 45.248-11.296 11.36zm39.624-39.656v.032l-16.984 16.952-45.248-45.248 16.984-16.984a23.356 23.356 0 016.888-4.8 23.946 23.946 0 0127.08 4.8l11.264 11.304c9.318 9.394 9.325 24.541.016 33.944z"/></svg>