<svg xmlns="http://www.w3.org/2000/svg" viewBox="0 0 50 50"><path d="M25 50C11.214 50 0 38.786 0 25S11.214 0 25 0s25 11.214 25 25-11.214 25-25 25zm0-46.875C12.938 3.125 3.125 12.938 3.125 25S12.938 46.875 25 46.875 46.875 37.062 46.875 25 37.062 3.125 25 3.125z"/><path d="M17.267 34.296a1.563 1.563 0 01-1.104-2.668l15.468-15.47a1.563 1.563 0 012.21 2.21l-15.468 15.47a1.564 1.564 0 01-1.106.458z"/><path d="M32.733 34.296c-.4 0-.8-.152-1.104-.458L16.161 18.37a1.562 1.562 0 112.21-2.21l15.468 15.468a1.562 1.562 0 01-1.106 2.667z"/></svg>