<svg xmlns="http://www.w3.org/2000/svg" viewBox="0 0 58 60"><path d="M7.453 57.214A3.268 3.268 0 0010.846 60h36.308a3.268 3.268 0 003.393-2.787l3.384-42.307A4.996 4.996 0 0053 5H42.48l-.697-.872A10.947 10.947 0 0033.193 0h-8.386a10.944 10.944 0 00-8.59 4.128L15.52 5H5a4.996 4.996 0 00-.931 9.906zm41.1-.162c-.042.523-.669.948-1.398.948h-36.31c-.73 0-1.356-.425-1.398-.947L6.083 15h45.834zM24.807 2h8.386a8.943 8.943 0 016.69 3H18.118a8.94 8.94 0 016.689-3zM2 10a3.003 3.003 0 013-3h48a3 3 0 010 6H5a3.003 3.003 0 01-3-3z"/><path d="M26 51a1 1 0 001-1V23a2 2 0 114 0 1 1 0 002 0 4 4 0 10-8 0v27a1 1 0 001 1zm-12 0a1 1 0 001-1V23a2 2 0 114 0 1 1 0 002 0 4 4 0 10-8 0v27a1 1 0 001 1zm24 0a1 1 0 001-1V23a2 2 0 114 0 1 1 0 002 0 4 4 0 10-8 0v27a1 1 0 001 1z"/></svg>