<svg xmlns="http://www.w3.org/2000/svg" viewBox="0 0 512 512"><path d="M224 128v96h64v-32h-32v-64z"/><path d="M160 128c0-53.019 42.981-96 96-96s96 42.981 96 96v96h32v-96C384 57.308 326.692 0 256 0S128 57.308 128 128v101.328l48 64V324.8l-176 64V512h128v-32H32v-68.8l176-64v-64.528l-48-64V128zm0 352h32v32h-32zm64 0h32v32h-32z"/><path d="M384 256c-70.692 0-128 57.308-128 128s57.308 128 128 128 128-57.308 128-128c-.079-70.66-57.34-127.921-128-128zm0 224c-53.019 0-96-42.981-96-96s42.981-96 96-96 96 42.981 96 96c-.053 52.997-43.003 95.947-96 96z"/><path d="M320 368h128v32H320z"/></svg>