<svg xmlns="http://www.w3.org/2000/svg" viewBox="0 0 395 396"><path d="M153.522 38.5c6.904 0 12.5 5.596 12.5 12.5s-5.596 12.5-12.5 12.5H63c-20.71 0-37.5 16.79-37.5 37.5v232c0 20.71 16.79 37.5 37.5 37.5h250c20.71 0 37.5-16.79 37.5-37.5v-90.902c0-6.903 5.596-12.5 12.5-12.5s12.5 5.597 12.5 12.5V333c0 34.518-27.982 62.5-62.5 62.5H63C28.482 395.5.5 367.518.5 333V101C.5 66.482 28.482 38.5 63 38.5h90.522z"/><path d="M370.558 13.03c-17.255-17.373-45.229-17.373-62.483 0L132.912 189.393a9.898 9.898 0 00-2.52 4.352l-23.034 83.729a9.93 9.93 0 002.516 9.63 9.78 9.78 0 009.565 2.538l83.16-23.197a9.8 9.8 0 004.322-2.537L382.079 87.541c17.228-17.384 17.228-45.527 0-62.911l-11.52-11.6zM154.305 195.818L297.662 51.475l46.234 46.55L200.535 242.37l-46.23-46.55zm-9.235 18.66l36.937 37.193-51.093 14.253 14.156-51.447zM357.783 84.046l-46.237-46.555 10.416-10.484c9.584-9.65 25.125-9.65 34.709 0l11.525 11.6c9.569 9.662 9.569 25.297 0 34.955l-10.413 10.484z"/></svg>