<svg xmlns="http://www.w3.org/2000/svg" viewBox="0 0 512 512"><path d="M219.977 15h29.743c1.687 0 3.339.203 4.945.562v96.474c0 19.08 15.496 34.603 34.542 34.603h96.263c.354 1.595.553 3.235.553 4.908V202a7.5 7.5 0 0015 0v-50.453c0-10.001-3.891-19.408-10.955-26.488L276.264 11.012C269.178 3.911 259.751 0 249.719 0h-29.743a7.5 7.5 0 10.001 15zm155.467 116.639h-86.237c-10.775 0-19.542-8.793-19.542-19.603V25.635zM38.523 112.5a7.5 7.5 0 007.5-7.5V47.5c0-17.92 14.58-32.5 32.5-32.5h106.454a7.5 7.5 0 000-15H78.523c-26.191 0-47.5 21.309-47.5 47.5V105a7.5 7.5 0 007.5 7.5zm57.407 45h123.701a7.5 7.5 0 000-15H95.93a7.5 7.5 0 000 15zm0 165c-4.142 0-7.5 3.357-7.5 7.5s3.358 7.5 7.5 7.5h123.701c4.142 0 7.5-3.357 7.5-7.5s-3.358-7.5-7.5-7.5zm222-120h-224a7.5 7.5 0 000 15h224a7.5 7.5 0 000-15zm7.5 67.5a7.5 7.5 0 00-7.5-7.5h-224c-4.142 0-7.5 3.357-7.5 7.5s3.358 7.5 7.5 7.5h224c4.143 0 7.5-3.357 7.5-7.5z"/><path d="M401.023 297.936V237a7.5 7.5 0 00-15 0v57.903c-4.6-.594-9.288-.903-14.046-.903-14.311 0-28.225 2.732-41.355 8.121a7.5 7.5 0 105.695 13.877c11.315-4.644 23.313-6.998 35.661-6.998a93.96 93.96 0 0120.013 2.152l.035.008c42.231 9.211 73.952 46.888 73.952 91.841 0 51.832-42.168 94-94 94s-94-42.168-94-94c0-26.496 11.272-51.901 30.927-69.699a7.5 7.5 0 10-10.069-11.119c-22.789 20.637-35.859 50.094-35.859 80.818 0 16.037 3.483 31.275 9.73 45H78.523c-17.92 0-32.5-14.579-32.5-32.5V140a7.5 7.5 0 00-15 0v275.5c0 26.191 21.309 47.5 47.5 47.5h202.501c19.526 29.501 53.003 49 90.952 49 60.103 0 109-48.897 109-109 .001-50.047-33.906-92.318-79.953-105.064z"/><path d="M371.977 340c-12.407 0-22.5 10.094-22.5 22.5v18h-18c-12.407 0-22.5 10.094-22.5 22.5s10.093 22.5 22.5 22.5h18v18c0 12.406 10.093 22.5 22.5 22.5s22.5-10.094 22.5-22.5v-18h18c12.407 0 22.5-10.094 22.5-22.5s-10.093-22.5-22.5-22.5h-18v-18c0-12.406-10.093-22.5-22.5-22.5zm40.5 55.5c4.136 0 7.5 3.364 7.5 7.5s-3.364 7.5-7.5 7.5h-25.5a7.5 7.5 0 00-7.5 7.5v25.5c0 4.136-3.364 7.5-7.5 7.5s-7.5-3.364-7.5-7.5V418a7.5 7.5 0 00-7.5-7.5h-25.5c-4.136 0-7.5-3.364-7.5-7.5s3.364-7.5 7.5-7.5h25.5a7.5 7.5 0 007.5-7.5v-25.5c0-4.136 3.364-7.5 7.5-7.5s7.5 3.364 7.5 7.5V388a7.5 7.5 0 007.5 7.5z"/></svg>