<svg xmlns="http://www.w3.org/2000/svg" viewBox="0 0 512 512"><path d="M504.5 497H497V297h7.5c4.142 0 7.5-3.357 7.5-7.5s-3.358-7.5-7.5-7.5H382.107v-22.356l5.106 1.72c3.826 1.294 8.165-.744 9.502-4.714a7.5 7.5 0 00-4.714-9.501L361 236.707v-52.189h7.5c4.142 0 7.5-3.357 7.5-7.5s-3.358-7.5-7.5-7.5h-7.778c-3.758-51.134-45.614-91.841-97.222-93.788V65H324c9.649 0 17.5-7.851 17.5-17.5v-30C341.5 7.851 333.649 0 324 0h-68a7.5 7.5 0 00-7.5 7.5v68.232c-21.777.839-42.895 8.726-59.845 22.438a7.5 7.5 0 009.434 11.662c15.291-12.371 34.568-19.184 54.279-19.184h7.263c45.095 0 82.206 34.746 86.022 78.869h-179.32c1.292-15.054 6.456-29.397 15.152-41.859a7.5 7.5 0 00-1.859-10.442 7.503 7.503 0 00-10.443 1.858c-10.462 14.994-16.581 32.3-17.905 50.443H143.5c-4.142 0-7.5 3.357-7.5 7.5s3.358 7.5 7.5 7.5h7.5v52.189l-31.001 10.442a7.5 7.5 0 104.788 14.215l5.106-1.72V282H7.5c-4.142 0-7.5 3.357-7.5 7.5s3.358 7.5 7.5 7.5H15v200H7.5c-4.142 0-7.5 3.357-7.5 7.5s3.358 7.5 7.5 7.5h497c4.142 0 7.5-3.357 7.5-7.5s-3.358-7.5-7.5-7.5zm-241-482H324c1.378 0 2.5 1.121 2.5 2.5v30c0 1.379-1.122 2.5-2.5 2.5h-60.5zM166 184.518h180v47.137l-74.838-25.207c-9.777-3.294-20.545-3.293-30.323 0L166 231.655zm-21.107 70.073l100.734-33.928a32.707 32.707 0 0120.747 0l100.734 33.928V282H144.893zM97.72 497H60v-30h37.72zm0-45H60v-25.226c0-10.399 8.46-18.859 18.86-18.859s18.86 8.46 18.86 18.859zm30 45h-15v-70.226c0-18.67-15.189-33.859-33.86-33.859S45 408.104 45 426.774V497H30V378.893h97.72zm0-133.107H30V297h73.197v15.5c0 12.406 10.093 22.5 22.5 22.5h2.022v28.893zM174.28 497h-31.56V335h31.561v162zm48.767 0H189.28V335h33.767zm46.56 0h-31.56V335h31.56zm53.113 0h-38.112V335h2.001c4.142 0 7.5-3.357 7.5-7.5s-3.358-7.5-7.5-7.5H125.697c-4.136 0-7.5-3.364-7.5-7.5V297h275.605v15.5c0 4.136-3.364 7.5-7.5 7.5h-69.694c-4.142 0-7.5 3.357-7.5 7.5s3.358 7.5 7.5 7.5h6.111v162zm46.56 0h-31.56V335h31.561v162zm82.72 0h-37.72v-30H452zm0-45h-37.72v-25.226c0-10.399 8.46-18.859 18.86-18.859s18.86 8.46 18.86 18.859zm30 45h-15v-70.226c0-18.67-15.189-33.859-33.86-33.859s-33.86 15.189-33.86 33.859V497h-15V378.893H482zm0-133.107h-97.72V335h2.022c12.407 0 22.5-10.094 22.5-22.5V297H482z"/></svg>