<svg xmlns="http://www.w3.org/2000/svg" viewBox="0 0 512 512"><path d="M373.333 512c-76.458 0-138.666-62.208-138.666-138.667 0-76.458 62.208-138.666 138.666-138.666 76.459 0 138.667 62.208 138.667 138.666C512 449.792 449.792 512 373.333 512zm0-245.333c-58.816 0-106.666 47.85-106.666 106.666 0 58.816 47.85 106.667 106.666 106.667C432.15 480 480 432.15 480 373.333c0-58.816-47.85-106.666-106.667-106.666z"/><path d="M423.059 405.484c5.808 6.66 5.117 16.767-1.543 22.575s-16.767 5.117-22.575-1.543l-75-86c-5.808-6.66-5.117-16.767 1.543-22.575s16.767-5.117 22.575 1.543l75 86z"/><path d="M398.941 319.484c5.808-6.66 15.915-7.35 22.575-1.543 6.66 5.808 7.35 15.915 1.543 22.575l-75 86c-5.808 6.66-15.915 7.35-22.575 1.543-6.66-5.808-7.35-15.915-1.543-22.575l75-86zM176 426.667H48c-26.453 0-48-21.547-48-48V197.333c0-26.453 21.547-48 48-48h245.333c13.76 0 26.774 5.867 35.734 16.15 5.802 6.656 5.141 16.746-1.515 22.57-6.613 5.824-16.747 5.163-22.57-1.514-2.902-3.307-7.126-5.206-11.649-5.206H48c-8.81 0-16 7.19-16 16v181.334c0 8.81 7.19 16 16 16h128c8.832 0 16 7.168 16 16s-7.168 16-16 16z"/><path d="M261.333 181.333c-8.832 0-16-7.168-16-16v-58.666C245.333 65.493 211.84 32 170.667 32 129.493 32 96 65.493 96 106.667v58.666c0 8.832-7.168 16-16 16s-16-7.168-16-16v-58.666C64 47.85 111.85 0 170.667 0c58.816 0 106.666 47.85 106.666 106.667v58.666c0 8.832-7.168 16-16 16z"/></svg>