<svg xmlns="http://www.w3.org/2000/svg" viewBox="0 0 512 512"><path d="M168.155 176.626c-2.309-5.391-5.889-9.048-10.642-10.87-9.563-3.667-20.536 1.409-31.146 6.32-2.229 1.032-4.334 2.006-6.411 2.896-18.725 8.023-31.385 39.71-23.354 58.457 2.304 5.375 5.934 9.069 10.791 10.977 2.532.995 5.171 1.421 7.888 1.421 8.344 0 17.41-4.019 26.248-7.938 1.531-.679 3.046-1.351 4.529-1.986 18.376-7.872 30.354-40.003 22.097-59.277zm-15.035 28.34c-3.012 8.412-7.987 14.966-12.985 17.106-1.54.66-3.113 1.356-4.702 2.061-7.631 3.383-18.082 8.021-22.537 6.268-.439-.173-1.466-.577-2.462-2.898-4.776-11.147 4.32-33.935 15.447-38.702 2.275-.974 4.578-2.04 6.806-3.071 5.774-2.672 13.393-6.2 17.692-6.2.669 0 1.258.085 1.746.274.303.116 1.225.469 2.2 2.746 2.257 5.271 1.784 14.069-1.205 22.416zm175.157 27.47c-19.317 0-37.619 6.186-52.929 17.891a7.522 7.522 0 00-1.406 10.545 7.522 7.522 0 0010.545 1.407c12.663-9.681 27.805-14.797 43.79-14.797 39.795 0 72.17 32.375 72.17 72.171 0 39.795-32.375 72.17-72.17 72.17s-72.171-32.375-72.171-72.17c0-13.048 3.517-25.83 10.17-36.964a7.524 7.524 0 00-12.917-7.718c-8.047 13.465-12.301 28.917-12.301 44.682 0 48.091 39.125 87.216 87.217 87.216s87.216-39.125 87.216-87.216c.002-48.092-39.123-87.217-87.214-87.217z"/><path d="M503.296 452.988L447.908 397.6a7.44 7.44 0 00-.98-.816v-167.33c0-4.155-3.367-7.523-7.523-7.523s-7.523 3.368-7.523 7.523v33.441a118.73 118.73 0 00-19.855-26.28 118.302 118.302 0 00-17.241-14.252c8.005-9.377 14.526-20.486 17.777-30.595 7.162-17.252 13.729-34.874 19.318-51.701v59.295c0 4.155 3.367 7.523 7.523 7.523s7.523-3.368 7.523-7.523V92.322a7.522 7.522 0 00-7.523-7.523H63.312V15.738a7.523 7.523 0 00-7.523-7.523C25.027 8.215 0 33.243 0 64.004v298.615c0 .548.062 1.08.173 1.594.99 13.041 6.635 25.155 16.066 34.354 10.091 9.843 23.413 15.263 37.512 15.263h202.511c20.588 15.939 45.719 24.578 72.18 24.578 24.005 0 46.913-7.114 66.33-20.332l11.012 11.012a7.523 7.523 0 00.029 10.608l55.389 55.388c5.803 5.802 13.425 8.703 21.047 8.703 7.621 0 15.244-2.901 21.047-8.703h.001c11.605-11.607 11.605-30.491-.001-42.096zm-71.413-75.482v14.647l-5.588-5.588a117.325 117.325 0 005.588-9.059zM256.499 112.13c2.116-1.882 6.917-5.52 17.788-12.285h153.902c-6.657 25.69-17.238 56.61-29.64 86.446a8.043 8.043 0 00-.229.625c-2.872 9.11-9.108 19.345-16.737 27.691-44.307-22.255-99.794-14.924-136.726 22.007a119.222 119.222 0 00-15.589 19.206 87.356 87.356 0 00-8.24-1.318c-19.58-2.173-28.285-8.241-29.789-12.778-1.425-4.296 3.261-9.509 6.182-12.235 5.792-5.406 10.025-10.155 13.425-13.972 7.902-8.867 10.025-11.252 18.896-10.618 37.952 2.712 61.962-.557 71.363-9.713 5.459-5.316 6.549-12.894 2.847-19.774-3.813-7.084-12.086-12.473-23.295-15.177-12.074-2.913-27.152-2.55-43.605 1.049-29.441 6.442-41.424 6.096-45.943 5.324 1.192-1.455 3.266-3.541 6.677-6.133 21.275-16.164 69.429-17.06 69.909-17.068a7.526 7.526 0 004.216-13.68c-8.885-6.248-16.033-14.788-15.682-17.307 0 0 .06-.104.27-.29zM63.312 99.845h52.765c-5.564 16.939-20.818 52.11-52.765 57.716V99.845zM49.407 398.539c-18.99-2.08-33.699-17.652-34.326-37.194.04-1.321.145-2.623.306-3.907l.044-.349c.061-.458.134-.912.21-1.364.054-.314.107-.629.168-.941.045-.236.095-.47.144-.705 3.937-18.378 20.298-32.203 39.835-32.203a7.523 7.523 0 007.523-7.523v-44.302a7.523 7.523 0 10-15.046 0v37.28c-11.813 1.588-22.772 6.904-31.432 15.362a55.972 55.972 0 00-1.786 1.831V64.004c0-19.896 14.336-36.507 33.22-40.047v216.001a7.523 7.523 0 1015.046 0v-67.175c22.018-2.91 40.81-16.732 54.675-40.356 7.511-12.797 11.8-25.424 13.861-32.583h115.87c-.43.357-.843.706-1.217 1.039-3.671 3.263-5.541 7.683-5.265 12.443.331 5.728 3.866 11.431 8.048 16.255-17.823 1.891-44.53 6.703-60.603 18.913-11.952 9.08-16.289 17.413-12.892 24.77 5.011 10.853 23.693 11.641 64.476 2.717 31.709-6.936 47.671 1.425 50.435 6.561.626 1.163.355 1.426-.094 1.864-4.645 4.524-24.935 7.974-59.793 5.484-16.251-1.164-22.847 6.243-31.201 15.616-3.362 3.773-7.173 8.049-12.458 12.982-12.939 12.076-11.943 22.708-10.197 27.971 4.061 12.246 19.123 20.413 42.411 22.996.716.079 1.413.179 2.113.276-7.364 15.579-11.247 32.725-11.247 50.469 0 13.747 2.333 27.135 6.808 39.714-9.698-3.891-20.301-5.529-31.542-4.804-23.24 1.503-28.338-2.993-33.736-7.75-7.137-6.29-14.069-10.989-32.62-9.561-34.276 2.637-61.698 46.491-69.738 60.74zm17.322.246c11.304-18.016 32.247-44.344 53.568-45.983 13.69-1.052 16.804 1.692 21.517 5.847 6.765 5.962 15.184 13.38 44.655 11.477 20.956-1.35 35.308 7.515 44.583 17.113a118.91 118.91 0 008.659 11.059c.102.162.21.327.309.487H66.729zm334.631-5.638a104.56 104.56 0 01-10.384 9.088c-.103.078-.196.167-.294.251-17.826 13.543-39.468 20.878-62.241 20.878-23.875 0-46.51-8.062-64.805-22.888-.006-.004-.01-.01-.016-.015a105.257 105.257 0 01-6.048-5.295l-.143-.133a104.5 104.5 0 01-1.935-1.884 107.232 107.232 0 01-4.083-4.328 86.034 86.034 0 00-8.325-10.642l-.012-.013c-11.569-16.962-17.797-36.982-17.797-57.963 0-27.555 10.731-53.462 30.216-72.947 20.112-20.112 46.529-30.167 72.947-30.167s52.835 10.056 72.947 30.167c19.486 19.485 30.216 45.391 30.216 72.947 0 22.756-7.324 44.383-20.847 62.201-.104.119-.212.235-.309.361a104.511 104.511 0 01-9.087 10.382zm5.374 15.612c1.805-1.6 3.574-3.253 5.294-4.973 1.71-1.71 3.354-3.469 4.946-5.263l9.686 9.687-10.238 10.238-9.688-9.689zm85.924 75.684c-5.741 5.74-15.078 5.738-20.817 0l-50.068-50.068 20.816-20.817 50.068 50.068c5.739 5.741 5.739 15.079.001 20.817z"/></svg>