<svg xmlns="http://www.w3.org/2000/svg" viewBox="0 0 512.008 512.008"><path d="M504.96 2.756c-4.384-2.976-10.016-3.584-14.912-1.6L336 62.756 182.24 1.252h-.032l-.256-.096a15.87 15.87 0 00-11.872 0l-.288.096h-.032L10.048 65.156A16.005 16.005 0 000 80.004v288a16.004 16.004 0 007.008 13.248A15.993 15.993 0 0016 384.004c2.016 0 4-.384 5.92-1.152l97.92-39.04c8.224-3.264 12.224-12.576 8.928-20.768-3.264-8.224-12.608-12.224-20.768-8.96l-76 30.304V90.82l128-51.2v121.664c0 8.832 7.168 16 16 16s16-7.168 16-16V39.652l128 51.2v24.032c0 8.832 7.168 16 16 16s16-7.168 16-16V90.852l128-51.2v264.352c0 8.832 7.168 16 16 16s16-7.168 16-16v-288c0-5.312-2.656-10.272-7.04-13.248z"/><path d="M507.328 484.708L416 393.38c19.712-24.64 32-55.456 32-89.376 0-79.392-64.608-144-144-144s-144 64.608-144 144 64.608 144 144 144c33.92 0 64.736-12.288 89.376-32l91.296 91.296c3.136 3.136 7.232 4.704 11.328 4.704s8.192-1.568 11.328-4.672c6.24-6.24 6.24-16.384 0-22.624zM304 416.004c-61.76 0-112-50.24-112-112s50.24-112 112-112 112 50.24 112 112-50.24 112-112 112z"/></svg>