<svg xmlns="http://www.w3.org/2000/svg" viewBox="0 -4 512 512"><path d="M115.36 83.7V39.647C115.36 17.785 97.573 0 75.71 0 53.853 0 36.064 17.785 36.064 39.648v44.008a76.018 76.018 0 00-11.258 8.465 7.503 7.503 0 00-.508 10.598 7.502 7.502 0 0010.594.504 60.58 60.58 0 0140.82-15.77c33.477 0 60.715 27.234 60.715 60.711s-27.238 60.711-60.715 60.711c-33.477 0-60.711-27.234-60.711-60.71 0-8.2 1.605-16.15 4.77-23.63a7.502 7.502 0 10-13.816-5.844C2.003 128.031 0 137.945 0 148.164c0 27.219 14.441 51.121 36.063 64.465V463.98c0 21.864 17.785 39.649 39.648 39.649 21.863 0 39.648-17.785 39.648-39.649V212.63c21.621-13.344 36.063-37.246 36.063-64.465.004-27.219-14.442-51.121-36.063-64.465zm-64.297-7.126V39.648C51.063 26.058 62.12 15 75.71 15s24.648 11.059 24.648 24.648v36.946c-18.898-7.516-41.441-2.723-49.296-.02zm49.296 387.406c0 13.594-11.054 24.649-24.648 24.649-13.59 0-24.648-11.059-24.648-24.649V219.734c7.734 2.672 25.953 7 49.3 0V463.98zm195.289-163.503V39.648C295.648 17.785 277.863 0 256 0s-39.648 17.785-39.648 39.648v260.829c-21.622 13.343-36.063 37.246-36.063 64.464 0 41.747 33.965 75.711 75.711 75.711a75.31 75.31 0 0024.648-4.14v27.468c0 13.59-11.058 24.649-24.648 24.649-13.594 0-24.648-11.059-24.648-24.649 0 0 1.558-12.972-7.5-12.851-8.145.11-7.5 12.851-7.5 12.851 0 21.864 17.785 39.649 39.648 39.649s39.648-17.785 39.648-39.649v-34.574c21.622-13.344 36.063-37.246 36.063-64.465s-14.441-51.12-36.063-64.464zM231.352 39.648C231.352 26.058 242.41 15 256 15c13.594 0 24.648 11.059 24.648 24.648v253.723c-20.578-6.89-41.566-2.672-49.296 0zM256 425.652c-33.477 0-60.71-27.234-60.71-60.71 0-33.477 27.233-60.712 60.71-60.712s60.71 27.235 60.71 60.711c0 33.477-27.233 60.711-60.71 60.711zm256-173.836c0-27.218-14.441-51.12-36.063-64.468v-71.02a7.5 7.5 0 10-15 0v63.918c-18.492-6.883-41.566-2.672-49.3 0V39.648c0-13.59 11.058-24.648 24.648-24.648 13.594 0 24.652 11.059 24.652 24.648v43.88a7.5 7.5 0 1015 0v-43.88C475.938 17.785 458.149 0 436.286 0c-21.86 0-39.648 17.785-39.648 39.648v147.7c-21.617 13.347-36.063 37.25-36.063 64.468s14.446 51.118 36.063 64.465v147.7c0 21.863 17.789 39.648 39.648 39.648 21.863 0 39.653-17.785 39.653-39.649V316.281C497.558 302.934 512 279.035 512 251.816zM460.937 463.98c0 13.594-11.058 24.649-24.648 24.649-13.594 0-24.648-11.059-24.648-24.649V323.387c7.73 2.668 24.648 7.3 49.296 0zM436.29 312.527c-33.476 0-60.715-27.234-60.715-60.71 0-33.477 27.238-60.715 60.715-60.715 33.477 0 60.711 27.238 60.711 60.714 0 33.477-27.234 60.711-60.71 60.711zm0 0"/></svg>