<svg xmlns="http://www.w3.org/2000/svg" viewBox="0 0 24 24"><path d="M21.5 22h-19C1.1 22 0 20.9 0 19.5v-12C0 6.1 1.1 5 2.5 5h19C22.9 5 24 6.1 24 7.5v12c0 1.4-1.1 2.5-2.5 2.5zM2.5 6C1.7 6 1 6.7 1 7.5v12c0 .8.7 1.5 1.5 1.5h19c.8 0 1.5-.7 1.5-1.5v-12c0-.8-.7-1.5-1.5-1.5z"/><path d="M15.5 6c-.3 0-.5-.2-.5-.5v-2c0-.3-.2-.5-.5-.5h-5c-.3 0-.5.2-.5.5v2c0 .3-.2.5-.5.5S8 5.8 8 5.5v-2C8 2.7 8.7 2 9.5 2h5c.8 0 1.5.7 1.5 1.5v2c0 .3-.2.5-.5.5zm8 6H.5c-.3 0-.5-.2-.5-.5s.2-.5.5-.5h23c.3 0 .5.2.5.5s-.2.5-.5.5z"/><path d="M6.5 14.2c-.3 0-.5-.2-.5-.5V9.5c0-.3.2-.5.5-.5s.5.2.5.5v4.2c0 .2-.2.5-.5.5zm11 0c-.3 0-.5-.2-.5-.5V9.5c0-.3.2-.5.5-.5s.5.2.5.5v4.2c0 .2-.2.5-.5.5z"/></svg>