<svg xmlns="http://www.w3.org/2000/svg" viewBox="0 0 512 512"><path d="M432.002 304H416a8 8 0 000 16h16.002a8 8 0 000-16zM336 384H176c-13.233 0-24 10.767-24 24s10.767 24 24 24h160c13.233 0 24-10.767 24-24s-10.767-24-24-24zm0 32H176c-4.411 0-8-3.589-8-8s3.589-8 8-8h160c4.411 0 8 3.589 8 8s-3.589 8-8 8zM88 256a8 8 0 008-8V112h320v136a8 8 0 0016 0V112c0-8.822-7.178-16-16-16V80c0-8.822-7.178-16-16-16V48c0-8.822-7.178-16-16-16V16c0-8.822-7.178-16-16-16H144c-8.822 0-16 7.178-16 16v16c-8.822 0-16 7.178-16 16v16c-8.822 0-16 7.178-16 16v16c-8.822 0-16 7.178-16 16v136a8 8 0 008 8zm56-240h224v16H144V16zm-16 32h256v16H128V48zm-16 32h288v16H112V80z"/><path d="M511.891 293.741a23.781 23.781 0 00-1.187-5.507L479.86 147.997C477.901 136.394 467.991 128 456.196 128H456a8 8 0 000 16h.196a7.963 7.963 0 017.902 6.752c.025.158.054.315.088.471l26.6 120.944A24.163 24.163 0 00488 272H24c-.943 0-1.872.061-2.787.167l26.6-120.944c.034-.156.063-.313.088-.471A7.965 7.965 0 0155.804 144H56a8 8 0 000-16h-.196c-11.795 0-21.706 8.394-23.664 19.997L1.297 288.234a23.781 23.781 0 00-1.187 5.507 8.02 8.02 0 00-.094 1.63c-.006.21-.016.418-.016.629v192c0 13.234 10.766 24 24 24h464c13.234 0 24-10.766 24-24V296c0-.211-.01-.419-.016-.628a8.025 8.025 0 00-.093-1.631zM496 488c0 4.411-3.589 8-8 8H24c-4.411 0-8-3.589-8-8V328c0-4.411 3.589-8 8-8h359.999a8 8 0 000-16H24a23.89 23.89 0 00-8 1.376V296c0-.057.007-.112.009-.169l.669-3.041c1.24-2.816 4.053-4.79 7.323-4.79h464c3.269 0 6.083 1.974 7.323 4.79l.669 3.041c.001.057.009.112.009.169v9.376a23.89 23.89 0 00-8-1.376h-24a8 8 0 000 16h24c4.411 0 8 3.589 8 8v160z"/><path d="M232 192a8 8 0 000-16h-64a8 8 0 000 16h64zm56-40a8 8 0 00-8-8H168a8 8 0 000 16h112a8 8 0 008-8zm-160 8h8a8 8 0 000-16h-8a8 8 0 000 16zm0 32h8a8 8 0 000-16h-8a8 8 0 000 16zm0 48a8 8 0 000 16h72a8 8 0 000-16h-72zm136-24a8 8 0 00-8-8H128a8 8 0 000 16h128a8 8 0 008-8zm120-8h-40a8 8 0 000 16h40a8 8 0 000-16zm-96 48h96a8 8 0 000-16h-96a8 8 0 000 16z"/></svg>