<svg xmlns="http://www.w3.org/2000/svg" viewBox="0 0 512 512"><path d="M467.238 309.746v183.517c0 4.535-2.806 9.808-5.981 12.926-3.203 3.146-8.532 5.811-13.068 5.811H344.498c-4.507 0-9.865-2.75-12.983-5.811-3.26-3.203-5.981-8.447-5.981-13.067V309.746c-8.164-1.531-15.505-5.556-21.147-11.227-7.653-7.653-11.82-17.887-11.82-28.602v-101.14c0-14.768 6.009-28.205 15.732-37.928 9.723-9.724 23.13-15.762 37.899-15.762h5.897a53.765 53.765 0 01-9.978-31.267V33.704c0-9.241 3.798-17.66 9.893-23.782C358.132 3.799 366.551 0 375.792 0h41.188c9.241 0 17.66 3.799 23.783 9.922 6.094 6.122 9.893 14.541 9.893 23.782v50.117a53.765 53.765 0 01-9.978 31.267h5.896c14.769 0 28.176 6.038 37.9 15.762 9.723 9.723 15.76 23.159 15.76 37.928v101.141c0 11.169-4.535 21.288-11.849 28.602-5.642 5.669-12.984 9.694-21.147 11.225zM92.781 237.121c2.919-2.92 7.682-2.92 10.602 0 2.919 2.92 2.919 7.682 0 10.602l-27.156 27.184c-2.948 2.92-7.682 2.92-10.602 0l-17.319-17.319c-2.92-2.92-2.92-7.683 0-10.602a7.545 7.545 0 0110.63 0l11.99 11.99zm0 149.274c2.919-2.92 7.682-2.92 10.602 0 2.919 2.921 2.919 7.683 0 10.603l-27.156 27.185c-2.948 2.92-7.682 2.92-10.602 0l-17.319-17.32c-2.92-2.919-2.92-7.682 0-10.602a7.546 7.546 0 0110.63 0l11.99 11.991zm0-298.548c2.919-2.92 7.682-2.92 10.602 0 2.919 2.92 2.919 7.682 0 10.601l-27.156 27.156c-2.948 2.948-7.682 2.948-10.602 0l-17.319-17.292c-2.92-2.919-2.92-7.682 0-10.602a7.546 7.546 0 0110.63 0l11.99 11.991zM435.66 68.231c-12.217 1.983-33.42 2.353-50.683-13.323-5.897 3.571-15.761 7.852-27.865 6.463v22.45c0 10.801 4.422 20.608 11.537 27.724 7.115 7.143 16.951 11.564 27.723 11.564 10.8 0 20.608-4.422 27.751-11.564 7.115-7.115 11.537-16.923 11.537-27.724zm-78.548-21.968c8.476 1.53 17.376-1.219 23.811-6.833 3.118-2.721 7.852-2.381 10.573.737 14.542 16.726 34.866 14.854 44.164 12.87V33.704c0-5.159-2.098-9.836-5.499-13.238-3.374-3.373-8.022-5.471-13.181-5.471h-41.188c-5.159 0-9.808 2.098-13.181 5.471-3.401 3.402-5.499 8.079-5.499 13.238zm10.97 83.821h-21.884c-10.63 0-20.296 4.365-27.297 11.367-7.257 7.285-11.396 17.036-11.396 27.326V269.89a25.628 25.628 0 007.483 18.085 25.226 25.226 0 0017.943 7.455h12.586V188.96c0-4.139 3.373-7.512 7.512-7.512s7.483 3.373 7.483 7.512v106.47h71.745V188.96c0-4.139 3.345-7.512 7.483-7.512 4.139 0 7.512 3.373 7.512 7.512v106.47h12.586c7.03 0 13.351-2.863 17.943-7.455 4.621-4.592 7.455-10.998 7.455-18.057V168.777c0-10.63-4.337-20.297-11.367-27.326-7.002-7.002-16.668-11.367-27.298-11.367h-21.912c-8.248 5.074-17.914 8.022-28.289 8.022-10.345 0-20.039-2.948-28.288-8.022zM161.691 380.726c-4.139 0-7.512-3.345-7.512-7.483s3.373-7.512 7.512-7.512h93.571c4.139 0 7.484 3.373 7.484 7.512s-3.345 7.483-7.484 7.483zm0 64.091c-4.139 0-7.512-3.345-7.512-7.483 0-4.139 3.373-7.512 7.512-7.512h63.127c4.139 0 7.512 3.373 7.512 7.512s-3.373 7.483-7.512 7.483zm0-32.031c-4.139 0-7.512-3.373-7.512-7.512s3.373-7.483 7.512-7.483h93.571a7.476 7.476 0 017.484 7.483c0 4.139-3.345 7.512-7.484 7.512zm0-181.334c-4.139 0-7.512-3.345-7.512-7.483 0-4.139 3.373-7.512 7.512-7.512h93.571c4.139 0 7.484 3.373 7.484 7.512s-3.345 7.483-7.484 7.483zm0 64.091c-4.139 0-7.512-3.345-7.512-7.483 0-4.139 3.373-7.512 7.512-7.512h63.127c4.139 0 7.512 3.373 7.512 7.512s-3.373 7.483-7.512 7.483zm0-32.031c-4.139 0-7.512-3.373-7.512-7.512s3.373-7.483 7.512-7.483h93.571c4.139 0 7.484 3.345 7.484 7.483s-3.345 7.512-7.484 7.512zm0-181.334c-4.139 0-7.512-3.345-7.512-7.483 0-4.139 3.373-7.512 7.512-7.512h93.571c4.139 0 7.484 3.373 7.484 7.512s-3.345 7.483-7.484 7.483zm0 64.092c-4.139 0-7.512-3.345-7.512-7.483a7.507 7.507 0 017.512-7.512h63.127a7.507 7.507 0 017.512 7.512c0 4.139-3.373 7.483-7.512 7.483zm0-32.033c-4.139 0-7.512-3.373-7.512-7.512s3.373-7.483 7.512-7.483h93.571c4.139 0 7.484 3.345 7.484 7.483s-3.345 7.512-7.484 7.512zM11.767 355.129c0-7.683 6.264-13.919 13.918-13.919h100.318c7.682 0 13.947 6.236 13.947 13.919v100.318c0 7.654-6.293 13.918-13.947 13.918H25.685c-7.625 0-13.918-6.293-13.918-13.918zm113.159 1.077H26.762v98.164h98.164zM11.767 56.581c0-7.654 6.293-13.947 13.918-13.947h100.318c7.654 0 13.947 6.293 13.947 13.947v100.318c0 7.654-6.293 13.918-13.947 13.918H25.685c-7.654 0-13.918-6.264-13.918-13.918zm113.159 1.077H26.762v98.164h98.164zM11.767 205.855c0-7.654 6.264-13.918 13.918-13.918h100.318c7.682 0 13.947 6.235 13.947 13.918v100.319c0 7.654-6.265 13.919-13.947 13.919H25.685c-7.654 0-13.918-6.265-13.918-13.919zm113.159 1.077H26.762v98.165h98.164zm263.962 290.073V343.847a7.476 7.476 0 017.483-7.483c4.167 0 7.512 3.345 7.512 7.483v153.158h43.965c2.183-.398 3.969-2.013 4.394-4.195V310.426H340.529V492.81c.425 2.183 2.211 3.798 4.394 4.195z"/></svg>