<svg xmlns="http://www.w3.org/2000/svg" viewBox="0 0 128 128"><path d="M126.25 43.56h-8.5v-8.5a1.749 1.749 0 00-1.75-1.75h-8.5V24.8a1.749 1.749 0 00-1.75-1.75h-104A1.749 1.749 0 000 24.8v57.89a1.75 1.75 0 001.75 1.75h8.5v8.5A1.749 1.749 0 0012 94.693h8.5v8.5a1.749 1.749 0 001.75 1.75h104A1.749 1.749 0 00128 103.2V45.31a1.75 1.75 0 00-1.75-1.75zM3.5 26.553h100.492V80.94H3.5zM13.754 84.44h91.988a1.75 1.75 0 001.75-1.75V36.807h6.754v54.386H13.754zM124.5 101.447H24.008v-6.754H116a1.749 1.749 0 001.75-1.75V47.06h6.75z"/><path d="M16.867 74.69a1.749 1.749 0 001.75 1.75h70.258a1.749 1.749 0 001.75-1.75 7.125 7.125 0 017.117-7.117 1.749 1.749 0 001.75-1.75V41.67a1.749 1.749 0 00-1.75-1.75 7.124 7.124 0 01-7.117-7.12 1.749 1.749 0 00-1.75-1.75H18.617a1.749 1.749 0 00-1.75 1.75 7.124 7.124 0 01-7.117 7.12A1.749 1.749 0 008 41.67v24.153a1.749 1.749 0 001.75 1.75 7.125 7.125 0 017.117 7.117zM11.5 43.275a10.643 10.643 0 008.723-8.722h67.046a10.643 10.643 0 008.723 8.722v20.943a10.643 10.643 0 00-8.723 8.722H20.223a10.643 10.643 0 00-8.723-8.722z"/><path d="M57.012 59.936H46.48a1.75 1.75 0 000 3.5H52v3.254a1.75 1.75 0 003.5 0v-3.254h1.516a5.756 5.756 0 005.75-5.75v-3.94A1.75 1.75 0 0061.012 52H48.23v-2.193a2.253 2.253 0 012.25-2.25h10.532a1.75 1.75 0 000-3.5H55.5V40.8a1.75 1.75 0 00-3.5 0v3.254h-1.52a5.757 5.757 0 00-5.75 5.75v3.939a1.75 1.75 0 001.75 1.75h12.782v2.19a2.253 2.253 0 01-2.25 2.253zm18.232-.854a5.336 5.336 0 10-5.336-5.336 5.342 5.342 0 005.336 5.336zm0-7.172a1.836 1.836 0 11-1.836 1.836 1.837 1.837 0 011.836-1.836zm-42.996 7.172a5.336 5.336 0 10-5.336-5.336 5.342 5.342 0 005.336 5.336zm0-7.172a1.836 1.836 0 11-1.836 1.836 1.837 1.837 0 011.836-1.836z"/></svg>