<svg xmlns="http://www.w3.org/2000/svg" viewBox="0 0 512 512"><g data-name="27- urgent support"><g data-name="linear color"><path d="M460 251v-61.97a12 12 0 00-10.529-11.909l-34.58-4.272-11.739-28.342 21.431-27.477a12 12 0 00-.978-15.865L362.835 40.4a12 12 0 00-15.865-.977l-27.477 21.426-28.341-11.741-4.272-34.58A12 12 0 00274.97 4h-85.94a12 12 0 00-11.91 10.528l-4.272 34.58-28.341 11.741-27.477-21.431a12 12 0 00-15.865.977L40.4 101.165a12 12 0 00-.978 15.865l21.431 27.477-11.744 28.342-34.58 4.272A12 12 0 004 189.03v85.94a12 12 0 0010.529 11.909l34.58 4.272 11.739 28.342-21.431 27.477a12 12 0 00.978 15.865l60.77 60.77a12 12 0 0015.865.977l27.477-21.431 28.341 11.741 4.272 34.58A12 12 0 00189.03 460H250c.321 0 .637-.023.952-.048A147.635 147.635 0 00360 508c81.607 0 148-66.393 148-148a147.635 147.635 0 00-48-109zM199.638 436l-3.828-30.991a12.005 12.005 0 00-7.318-9.615l-41.26-17.094a12 12 0 00-11.972 1.625l-24.626 19.206-45.768-45.766 19.206-24.625a12 12 0 001.628-11.971l-17.09-41.261a12 12 0 00-9.615-7.318L28 264.361v-64.722l30.991-3.829a12 12 0 009.615-7.318L85.7 147.231a12 12 0 00-1.624-11.971l-19.21-24.625 45.768-45.769 24.626 19.206a12 12 0 0011.972 1.628l41.26-17.091a12.005 12.005 0 007.318-9.615L199.638 28h64.724l3.828 30.991a12.005 12.005 0 007.318 9.615l41.26 17.094a12 12 0 0011.972-1.625l24.626-19.206 45.768 45.769-19.206 24.622a12 12 0 00-1.624 11.971l17.09 41.261a12 12 0 009.615 7.318L436 199.639v33.412A147.1 147.1 0 00360 212a148.887 148.887 0 00-15.8.845A113.824 113.824 0 10212.845 344.2 148.939 148.939 0 00212 360a147.093 147.093 0 0021.051 76zM244 239.417l25.367-12.684A12 12 0 00276 216v-24a12 12 0 00-24 0v16.584l-20 10-20-10V192a12 12 0 00-24 0v24a12 12 0 006.633 10.733L220 239.417v72.568q-1.461 4.246-2.664 8.606a89.822 89.822 0 11103.258-103.256A148.4 148.4 0 00244 268.194zM360 484a124 124 0 11124-124 124.14 124.14 0 01-124 124z"/><path d="M417.689 412h-4v-44a44.049 44.049 0 00-44-44h-16a44.049 44.049 0 00-44 44v44h-4a12 12 0 000 24h112a12 12 0 100-24zm-44 0v-28a12 12 0 00-24 0v28h-16v-44a20.023 20.023 0 0120-20h16a20.023 20.023 0 0120 20v44zm-12-104a12 12 0 0012-12v-16a12 12 0 00-24 0v16a12 12 0 0012 12zm-59.733 7.9a12 12 0 1020.571-12.362l-8.241-13.714a12 12 0 00-20.572 12.362zm123.603-30.185a12 12 0 00-16.467 4.1l-8.241 13.714a12 12 0 1020.571 12.371l8.241-13.714a12 12 0 00-4.104-16.471z"/></g></g></svg>