<svg xmlns="http://www.w3.org/2000/svg" viewBox="0 0 512 512"><path d="M392.194 374.647a357.837 357.837 0 01-7.287-2.506v-35.773c6.588 1.311 10.52 4.464 10.849 4.735a7.499 7.499 0 0010.531-.786 7.499 7.499 0 00-.744-10.579c-.452-.392-8.12-6.89-20.635-8.551v-2.957a7.5 7.5 0 00-14.998 0v3.5a50.542 50.542 0 00-3.875.931c-11.529 3.271-20.034 12.682-22.194 24.561-1.907 10.485 1.724 20.555 9.476 26.281 4.188 3.094 9.414 5.928 16.593 8.928v45.229c-6.654-.383-11.063-1.783-18.459-6.339-3.527-2.173-8.146-1.074-10.318 2.452s-1.075 8.146 2.452 10.318c10.257 6.319 17.219 8.133 26.326 8.57v3.861a7.5 7.5 0 0014.998 0v-4.433c17.602-3.212 28.716-17.159 30.9-30.906 2.626-16.544-6.642-30.886-23.615-36.536zm-29.968-13.209c-3.723-2.75-4.316-7.76-3.63-11.532.875-4.814 4.311-10.656 11.312-12.744v28.813c-2.912-1.439-5.535-2.951-7.682-4.537zm38.767 47.392c-1.161 7.309-6.594 15.09-16.087 17.88v-38.692c.836.284 1.677.569 2.55.86 9.936 3.308 14.997 10.766 13.537 19.952zM370.746 56.033c0-7.47-6.077-13.546-13.546-13.546H58.383c-7.469 0-13.546 6.077-13.546 13.546v20.212a7.5 7.5 0 0014.998 0v-18.76h295.911v72.55H59.836v-18.727a7.5 7.5 0 00-14.998 0v20.18c0 7.469 6.077 13.546 13.546 13.546H357.2c7.47 0 13.546-6.077 13.546-13.546zM109.227 193.325c0-6.803-5.535-12.337-12.337-12.337H59.821c-6.803 0-12.337 5.535-12.337 12.337v37.068c0 6.803 5.535 12.338 12.337 12.338H96.89c6.803 0 12.337-5.535 12.337-12.338zm-14.999 34.407H62.482v-31.746h31.746zm101.29-34.407c0-6.803-5.535-12.337-12.338-12.337h-37.068c-6.803 0-12.337 5.535-12.337 12.337v37.068c0 6.803 5.535 12.338 12.337 12.338h37.068c6.803 0 12.338-5.535 12.338-12.338zm-14.999 34.407h-31.746v-31.746h31.746zm51.884-46.744c-6.803 0-12.338 5.535-12.338 12.337v37.068c0 6.803 5.535 12.338 12.338 12.338h37.068c6.803 0 12.337-5.535 12.337-12.338v-37.068c0-6.803-5.535-12.337-12.337-12.337zm34.407 46.744h-31.746v-31.746h31.746zm88.953-46.744h-37.069c-6.803 0-12.337 5.535-12.337 12.337v37.068c0 6.803 5.535 12.338 12.337 12.338h37.069c6.803 0 12.337-5.535 12.337-12.338v-37.068c0-6.803-5.535-12.337-12.337-12.337zm-2.662 46.744h-31.746v-31.746h31.746zm-243.874 56.881c0-6.803-5.535-12.337-12.337-12.337H59.821c-6.803 0-12.337 5.535-12.337 12.337v37.068c0 6.803 5.535 12.338 12.337 12.338H96.89c6.803 0 12.337-5.535 12.337-12.338zM94.228 319.02H62.482v-31.746h31.746zm101.29-34.407c0-6.803-5.535-12.337-12.338-12.337h-37.068c-6.803 0-12.337 5.535-12.337 12.337v37.068c0 6.803 5.535 12.338 12.337 12.338h37.068c6.803 0 12.338-5.535 12.338-12.338zm-14.999 34.407h-31.746v-31.746h31.746zm2.661 44.543h-37.068c-6.803 0-12.337 5.535-12.337 12.337v37.068c0 6.803 5.535 12.338 12.337 12.338h37.068c6.803 0 12.338-5.535 12.338-12.338V375.9c0-6.802-5.535-12.337-12.338-12.337zm-2.661 46.745h-31.746v-31.746h31.746z"/><path d="M378.124 252.753c-38.19 0-72.572 16.605-96.315 42.97v-11.11c0-6.803-5.535-12.338-12.337-12.338h-37.068c-6.803 0-12.338 5.535-12.338 12.338v37.068c0 6.803 5.535 12.337 12.338 12.337h25.461a128.533 128.533 0 00-7.994 29.544h-17.467c-6.803 0-12.338 5.535-12.338 12.338v37.068c0 6.803 5.535 12.337 12.338 12.337h23.413C273.573 475.745 321.69 512 378.124 512c71.475 0 129.624-58.149 129.624-129.624s-58.149-129.623-129.624-129.623zm-143.06 66.267v-31.746h31.746v28.755a128.45 128.45 0 00-1.734 2.991zm0 91.288v-31.746h13.497a130.62 130.62 0 00-.06 3.815c0 9.587 1.056 18.932 3.04 27.931zm143.06 86.693c-63.204 0-114.625-51.421-114.625-114.625s51.421-114.625 114.625-114.625 114.625 51.421 114.625 114.625-51.42 114.625-114.625 114.625z"/><path d="M378.124 282.866c-54.87 0-99.51 44.64-99.51 99.51s44.64 99.51 99.51 99.51 99.51-44.64 99.51-99.51-44.64-99.51-99.51-99.51zm0 184.022c-46.6 0-84.512-37.912-84.512-84.512s37.912-84.512 84.512-84.512 84.512 37.912 84.512 84.512-37.912 84.512-84.512 84.512zM96.89 363.563H59.821c-6.803 0-12.337 5.535-12.337 12.337v37.068c0 6.803 5.535 12.338 12.337 12.338H96.89c6.803 0 12.337-5.535 12.337-12.338V375.9c0-6.802-5.535-12.337-12.337-12.337zm-2.662 46.745H62.482v-31.746h31.746z"/><path d="M269.436 475.417H47.998c-15.851 0-28.747-12.896-28.747-28.747V43.745c0-15.851 12.896-28.747 28.747-28.747h319.589c15.851 0 28.747 12.896 28.747 28.747v184.053a7.5 7.5 0 0014.998 0V43.745C411.332 19.624 391.708 0 367.587 0H47.998C23.876 0 4.252 19.624 4.252 43.745V446.67c0 24.122 19.624 43.746 43.745 43.746h221.439a7.5 7.5 0 000-14.999z"/></svg>