<svg xmlns="http://www.w3.org/2000/svg" viewBox="0 0 512 512"><path d="M422 332H90c-49.626 0-90 40.374-90 90v90h512v-90c0-49.626-40.374-90-90-90zm-147.711 60h-36.577l-7.5-30h51.578l-7.501 30zm-63.598 15.611L198.293 482H136V362h63.289l11.402 45.611zM238.707 422h34.586l10 60h-54.586l10-60zm62.602-14.389L312.711 362H376v120h-62.293l-12.398-74.389zM30 422c0-33.084 26.916-60 60-60h16v120H30v-60zm452 60h-76V362h16c33.084 0 60 26.916 60 60v60zM256 302c83.262 0 151-67.738 151-151S339.262 0 256 0 105 67.738 105 151s67.738 151 151 151zm0-272c66.72 0 121 54.28 121 121s-54.28 121-121 121-121-54.28-121-121S189.28 30 256 30z"/><path d="M347 136h-76V60h-30v106h106z"/></svg>