<svg xmlns="http://www.w3.org/2000/svg" viewBox="0 0 513 513"><path d="M489.967 22.215c-29.649-29.995-77.026-29.23-105.848-.037l-38.058 38.058c-.03.03-.063.054-.092.083-.03.03-.054.063-.083.092l-42.246 42.246c-.03.03-.063.054-.093.084-.03.03-.055.063-.084.093l-42.244 42.244c-.03.03-.064.055-.094.085-.03.03-.055.063-.085.094L218.798 187.5c-.031.03-.064.055-.095.085-.031.03-.055.064-.085.094l-42.241 42.241c-.031.03-.065.055-.095.086-.03.031-.056.064-.086.095l-42.239 42.24c-.031.031-.065.056-.096.087-.031.031-.056.065-.087.096l-21.241 21.241a44.781 44.781 0 00-13.038 28.822 74.914 74.914 0 01-21.812 48.207l-64.469 64.473c-17.585 17.583-17.589 46.048 0 63.637 17.544 17.541 46.089 17.541 63.634-.001l73.127-73.131a45.085 45.085 0 0134.254-13.129 44.917 44.917 0 0034.113-13.063L489.93 127.992c29.437-29.436 29.5-76.276.037-105.777zM55.636 477.689c-5.849 5.847-15.363 5.846-21.209.001-5.861-5.862-5.862-15.347 0-21.209l46.276-46.279 21.208 21.208-46.275 46.279zm413.081-370.91L197.13 378.365c-3.016 3.016-7.02 4.555-11.289 4.32-39.319-2.1-60.352 25.878-62.718 27.512l-21.277-21.277a104.879 104.879 0 0027.586-64.417 14.797 14.797 0 014.312-9.524l10.726-10.726 21.088 21.088c5.857 5.857 15.355 5.858 21.213 0 5.858-5.858 5.858-15.355 0-21.213l-21.088-21.088 21.209-21.209 21.088 21.088c5.857 5.857 15.355 5.858 21.213 0 5.858-5.858 5.858-15.355 0-21.213l-21.088-21.088 21.209-21.209 21.088 21.088c5.857 5.857 15.355 5.858 21.213 0 5.858-5.858 5.858-15.355 0-21.213l-21.088-21.088 21.209-21.209 21.088 21.088c5.857 5.857 15.355 5.858 21.213 0 5.858-5.858 5.858-15.355 0-21.213l-21.088-21.088 21.209-21.209 21.088 21.088c5.857 5.857 15.355 5.858 21.213 0 5.858-5.858 5.858-15.355 0-21.213l-21.089-21.088 21.209-21.209 21.089 21.089c5.857 5.857 15.355 5.858 21.213 0 5.858-5.858 5.858-15.355 0-21.213L377.793 70.93 405.4 43.323c17.536-17.76 45.709-17.765 63.25 0l.067.068c17.744 17.745 17.758 45.629 0 63.388z"/></svg>