<svg xmlns="http://www.w3.org/2000/svg" viewBox="-20 -55 640 640"><path d="M537.5-2.332h-475C27.988-2.32.016 25.656 0 60.168v405c.016 34.512 27.988 62.484 62.5 62.5h475c34.512-.016 62.484-27.988 62.5-62.5v-405c-.016-34.512-27.988-62.488-62.5-62.5zm-475 25h475c20.684.059 37.441 16.816 37.5 37.5v52.121H25V60.168c.059-20.684 16.816-37.441 37.5-37.5zm475 480h-475c-20.684-.059-37.441-16.816-37.5-37.5V137.289h550v327.879c-.059 20.684-16.816 37.441-37.5 37.5zm0 0"/><path d="M179.25 320.168c35.691 0 64.625-28.938 64.625-64.625 0-35.695-28.934-64.625-64.625-64.625s-64.625 28.93-64.625 64.625c.047 35.668 28.953 64.574 64.625 64.625zm0-104.129c21.883 0 39.625 17.742 39.625 39.625 0 21.887-17.742 39.629-39.625 39.629-21.887 0-39.625-17.742-39.625-39.629.008-21.879 17.742-39.613 39.625-39.625zm0 128.004A96.97 96.97 0 00109 373.418c-18.75 19.121-29 45.121-29 73.375.02 6.895 5.605 12.48 12.5 12.5H266c6.895-.02 12.48-5.605 12.5-12.5 0-28.254-10.25-54.254-29-73.375a96.963 96.963 0 00-70.25-29.375zm-73.375 90.25a76.457 76.457 0 0121-43.375c13.832-14 32.695-21.875 52.375-21.875s38.543 7.875 52.375 21.875a76.812 76.812 0 0121 43.375zm400.875-85.25H348.625c-6.902 0-12.5 5.598-12.5 12.5 0 6.898 5.598 12.5 12.5 12.5H506.75c6.902 0 12.5-5.602 12.5-12.5 0-6.902-5.598-12.5-12.5-12.5zm0 72.75H348.625c-6.902 0-12.5 5.594-12.5 12.5 0 6.902 5.598 12.5 12.5 12.5H506.75c6.902 0 12.5-5.598 12.5-12.5 0-6.906-5.598-12.5-12.5-12.5zm0-218.253H348.625c-6.902 0-12.5 5.597-12.5 12.5 0 6.905 5.598 12.5 12.5 12.5H506.75c6.902 0 12.5-5.595 12.5-12.5 0-6.903-5.598-12.5-12.5-12.5zm0 72.75H348.625c-6.902 0-12.5 5.6-12.5 12.5 0 6.905 5.598 12.5 12.5 12.5H506.75c6.902 0 12.5-5.595 12.5-12.5 0-6.9-5.598-12.5-12.5-12.5zm0 0"/></svg>