<svg xmlns="http://www.w3.org/2000/svg" viewBox="0 0 24 24"><path d="M9.5 21h-7A2.502 2.502 0 010 18.5v-13C0 4.121 1.121 3 2.5 3h2a.5.5 0 010 1h-2C1.673 4 1 4.673 1 5.5v13c0 .827.673 1.5 1.5 1.5h7a.5.5 0 010 1z"/><path d="M11.5 6h-6C4.673 6 4 5.327 4 4.5v-2a.5.5 0 01.5-.5h1.55C6.282.86 7.293 0 8.5 0s2.218.86 2.45 2h1.55a.5.5 0 01.5.5v2c0 .827-.673 1.5-1.5 1.5zM5 3v1.5c0 .275.225.5.5.5h6c.275 0 .5-.225.5-.5V3h-1.5a.5.5 0 01-.5-.5C10 1.673 9.327 1 8.5 1S7 1.673 7 2.5a.5.5 0 01-.5.5zm8.5 6h-10a.5.5 0 010-1h10a.5.5 0 010 1zm-.5 3H3.5a.5.5 0 010-1H13a.5.5 0 010 1zm-1 3H3.5a.5.5 0 010-1H12a.5.5 0 010 1zm7.5 5.5h-3a.5.5 0 01-.5-.5v-1.956c0-.491-.28-.883-.516-1.125a3.465 3.465 0 01-.927-3.061c.252-1.402 1.406-2.555 2.808-2.802a3.514 3.514 0 012.883.761A3.492 3.492 0 0121.5 14.5a3.45 3.45 0 01-1.037 2.472c-.211.209-.463.549-.463.986V20a.5.5 0 01-.5.5zm-2.5-1h2v-1.542c0-.611.27-1.214.76-1.697.478-.472.74-1.097.74-1.761 0-.741-.326-1.439-.895-1.917a2.492 2.492 0 00-2.066-.542 2.509 2.509 0 00-1.997 1.995 2.472 2.472 0 00.659 2.186c.523.538.799 1.168.799 1.822z"/><path d="M23.5 24h-11a.5.5 0 01-.5-.5v-2.117a1.5 1.5 0 011.313-1.488l3.124-.391L19.5 19.5l3.187.395A1.5 1.5 0 0124 21.383V23.5a.5.5 0 01-.5.5zM13 23h10v-1.617a.5.5 0 00-.438-.496l-3.124-.391-2.938.004-3.062.387a.5.5 0 00-.438.496zm3.5-14a.5.5 0 01-.5-.5v-3c0-.827-.673-1.5-1.5-1.5h-2a.5.5 0 010-1h2C15.879 3 17 4.121 17 5.5v3a.5.5 0 01-.5.5z"/></svg>