<svg xmlns="http://www.w3.org/2000/svg" viewBox="0 0 512 512"><path d="M502 492c-11.38 0-18.096-5.597-26.599-12.683C465.661 471.2 454.62 462 436 462h-.59c-20.026 0-39.147-9.594-51.148-25.664C356.82 399.6 314.042 375.222 266 372.307V201.264c22.087 5.301 42.7 25.58 42.929 25.807A10.09 10.09 0 00316 230c2.532 0 5.121-.988 7.063-2.92.271-.27 27.51-27.08 52.937-27.08s52.666 26.81 52.929 27.071C435.184 233.326 446 228.939 446 220c0-30.507-7.406-60.837-21.417-87.713a10 10 0 00-13.49-4.244c-4.897 2.553-6.798 8.593-4.244 13.49 9.283 17.808 15.224 36.692 17.751 56.375C411.952 189.219 394.236 180 376 180c-19.119 0-37.66 10.132-50.394 19.163-1.65-43.903-10.197-109.004-34.23-145.471a168.832 168.832 0 0159.186 25.013c4.586 3.076 10.798 1.853 13.875-2.734s1.853-10.799-2.734-13.875C333.161 42.954 300.263 32.044 266 30.264V10c0-5.522-4.478-10-10-10s-10 4.478-10 10v20.263C145.864 35.481 66 118.588 66 220a9.997 9.997 0 006.166 9.229c3.731 1.549 8.032.7 10.896-2.149.272-.27 27.511-27.08 52.938-27.08s52.666 26.81 52.929 27.071A10.101 10.101 0 00196 230c2.545 0 5.168-1.026 7.071-2.929 6.363-6.364 24.622-21.303 42.929-25.78v171.016c-48.014 2.913-90.801 27.269-118.263 64.03C107.301 463.707 76.283 461.932 76 462c-18.62 0-29.661 9.2-39.401 17.317C28.096 486.403 21.38 492 10 492c-5.522 0-10 4.478-10 10s4.478 10 10 10c18.62 0 29.661-9.2 39.401-17.317C57.904 487.597 64.62 482 76 482c10.857 0 15.921 5.063 22.929 12.071C106.917 502.059 116.857 512 136 512s29.083-9.941 37.071-17.929C180.079 487.063 185.143 482 196 482s15.921 5.063 22.929 12.071C226.917 502.059 236.857 512 256 512s29.083-9.941 37.071-17.929C300.079 487.063 305.143 482 316 482s15.921 5.063 22.929 12.071C346.917 502.059 356.857 512 376 512s29.083-9.941 37.071-17.929C420.079 487.063 425.143 482 436 482c11.38 0 18.096 5.597 26.599 12.683C472.339 502.8 483.38 512 502 512c5.522 0 10-4.478 10-10s-4.478-10-10-10zM186.394 199.163C173.66 190.132 155.119 180 136 180c-18.221 0-35.923 9.204-48.568 17.887 9.345-71.608 63.425-129.356 133.185-144.183-24.046 36.497-32.577 101.641-34.223 145.459zm20.022-.571C210.023 105.983 236.577 50 256 50s45.977 55.983 49.584 148.592C292.881 189.71 274.717 180 256 180s-36.881 9.71-49.584 18.592zm192.513 281.337C391.921 486.937 386.857 492 376 492s-15.921-5.063-22.929-12.071C345.083 471.941 335.143 462 316 462s-29.083 9.941-37.071 17.929C271.921 486.937 266.857 492 256 492s-15.921-5.063-22.929-12.071C225.083 471.941 215.143 462 196 462s-29.083 9.941-37.071 17.929C151.921 486.937 146.857 492 136 492s-15.921-5.063-22.929-12.071c-1.411-1.411-2.884-2.882-4.457-4.349 13.792-5.723 26.036-15.073 35.147-27.275C170.492 412.522 211.402 392 256 392s85.508 20.522 112.237 56.304c9.113 12.202 21.357 21.553 35.149 27.276-1.573 1.467-3.046 2.938-4.457 4.349z"/><circle cx="390" cy="100" r="10"/></svg>