<svg xmlns="http://www.w3.org/2000/svg" viewBox="0 0 512 512"><path d="M0 436c0 5.522 4.477 10 10 10h50v46H40c-5.523 0-10 4.478-10 10s4.477 10 10 10h60c5.523 0 10-4.478 10-10s-4.477-10-10-10H80v-46h166v46h-20c-5.523 0-10 4.478-10 10s4.477 10 10 10h60c5.522 0 10-4.478 10-10s-4.478-10-10-10h-20v-46h166v46h-20c-5.522 0-10 4.478-10 10s4.478 10 10 10h60c5.522 0 10-4.478 10-10s-4.478-10-10-10h-20v-46h20c22.056 0 40-17.944 40-40s-17.944-40-40-40h-86v-20c0-22.056-17.944-40-40-40h-80V201.264c15.181 3.643 32.154 15.38 43.065 25.931a10.003 10.003 0 0013.997-.115c.272-.27 27.511-27.08 52.938-27.08s52.666 26.81 52.929 27.071A10.001 10.001 0 00446 220c0-30.507-7.406-60.837-21.417-87.713-2.553-4.896-8.591-6.797-13.49-4.244-4.897 2.553-6.798 8.593-4.244 13.49 9.283 17.808 15.224 36.692 17.751 56.375C411.952 189.219 394.236 180 376 180c-19.119 0-37.66 10.132-50.394 19.163-1.65-43.903-10.198-109.004-34.23-145.471a168.82 168.82 0 0159.185 25.013c4.586 3.075 10.799 1.853 13.875-2.734 3.077-4.587 1.853-10.799-2.734-13.875C333.161 42.954 300.263 32.044 266 30.264V10c0-5.522-4.478-10-10-10s-10 4.478-10 10v20.263C145.864 35.481 66 118.588 66 220a9.997 9.997 0 006.166 9.229c3.731 1.549 8.032.7 10.896-2.149.272-.27 27.512-27.08 52.938-27.08s52.666 26.81 52.929 27.071c3.825 3.825 10.192 3.951 14.143 0 6.363-6.364 24.622-21.303 42.929-25.78V306H86.675l-18.003-18.07C61.091 280.348 50.641 276 40 276c-22.056 0-40 17.944-40 40 0 10.641 4.348 21.091 11.929 28.671L93.257 426H10c-5.523 0-10 4.478-10 10zm346-110c11.028 0 20 8.972 20 20v20H266v-40zM186.394 199.163C173.66 190.132 155.119 180 136 180c-18.22 0-35.923 9.204-48.568 17.887 9.345-71.608 63.425-129.356 133.185-144.183-24.047 36.498-32.577 101.641-34.223 145.459zm20.022-.571C210.023 105.983 236.576 50 256 50c19.423 0 45.977 55.983 49.584 148.592C292.881 189.71 274.717 180 256 180s-36.881 9.71-49.584 18.592zM246 326v40h-99.547l-39.852-40zm-219.929 4.528C22.27 326.728 20 321.296 20 316c0-11.028 8.972-20 20-20 5.296 0 10.728 2.27 14.516 6.058l80.7 81A9.996 9.996 0 00142.3 386H472c11.028 0 20 8.972 20 20s-8.972 20-20 20H121.542z"/><circle cx="390" cy="100" r="10"/></svg>